<?xml version="1.0" standalone="no"?>
<!DOCTYPE svg PUBLIC "-//W3C//DTD SVG 20010904//EN"
 "http://www.w3.org/TR/2001/REC-SVG-20010904/DTD/svg10.dtd">
<svg version="1.0" xmlns="http://www.w3.org/2000/svg"
 width="1938.000000pt" height="1938.000000pt" viewBox="0 0 1938.000000 1938.000000"
 preserveAspectRatio="xMidYMid meet">

<g transform="translate(0.000000,1938.000000) scale(0.100000,-0.100000)"
fill="#000000" stroke="none">
<path d="M3670 19363 c-19 -1 -87 -8 -150 -14 -637 -60 -1309 -315 -1855 -703
-816 -579 -1384 -1450 -1580 -2420 -44 -221 -63 -375 -75 -616 -13 -253 -13
-11582 0 -11842 11 -231 31 -393 75 -614 204 -1012 812 -1913 1677 -2488 565
-375 1193 -592 1863 -646 102 -8 1777 -10 6155 -8 6584 4 6027 -1 6358 58 919
163 1774 673 2365 1410 504 628 799 1379 857 2185 8 106 10 1894 8 6125 -4
5566 -5 5984 -21 6100 -67 489 -181 875 -378 1275 -198 403 -430 727 -754
1050 -329 330 -652 561 -1060 760 -391 190 -753 299 -1220 368 l-150 21 -6040
2 c-3322 0 -6056 -1 -6075 -3z m4851 -2433 c375 -77 676 -310 845 -654 91
-188 124 -354 124 -628 l0 -148 -2632 0 c-2813 0 -2676 2 -2774 -48 -65 -33
-132 -105 -167 -180 l-32 -67 0 -1785 0 -1785 27 -57 c56 -120 170 -207 299
-228 43 -6 929 -10 2673 -10 l2609 0 -6 -207 c-8 -271 -31 -379 -122 -568
-139 -289 -393 -511 -705 -615 -186 -63 -51 -60 -2705 -60 -2654 0 -2519 -3
-2705 59 -413 139 -705 466 -804 901 l-21 95 0 2470 c0 2326 1 2475 18 2557
102 500 478 874 969 963 59 11 546 13 2541 14 2438 1 2470 1 2568 -19z m7441
5 c239 -41 502 -183 662 -356 167 -180 283 -421 315 -653 8 -53 11 -833 11
-2509 0 -2672 3 -2520 -60 -2709 -129 -385 -446 -678 -850 -783 -94 -25 -127
-28 -322 -32 l-218 -5 -2 1254 -3 1254 -38 76 c-43 88 -102 146 -187 187 l-55
26 -1795 0 -1795 0 -58 -29 c-117 -59 -195 -167 -216 -297 -7 -42 -11 -482
-11 -1268 l0 -1203 -217 5 c-190 4 -231 8 -319 30 -402 102 -724 398 -853 783
-65 193 -61 21 -61 2714 0 2667 -3 2513 56 2702 56 178 186 384 322 508 168
155 386 265 602 305 117 21 4970 21 5092 0z m-7429 -7468 c487 -122 818 -452
928 -927 15 -64 22 -138 26 -297 l6 -213 -2664 -2 -2664 -3 -57 -27 c-80 -37
-152 -107 -191 -187 l-32 -66 0 -385 0 -385 27 -58 c55 -117 166 -203 292
-226 42 -8 675 -11 2137 -11 2273 0 2148 3 2331 -59 354 -120 635 -401 753
-755 61 -182 58 -130 62 -1246 3 -706 1 -1055 -7 -1122 -39 -340 -208 -636
-478 -836 -151 -112 -353 -197 -527 -222 -58 -8 -753 -10 -2570 -8 l-2490 3
-75 22 c-373 106 -635 319 -796 647 -89 182 -124 362 -124 636 l0 140 2708 2
2707 3 60 24 c83 33 183 133 216 216 24 60 24 62 24 430 0 365 0 371 -23 428
-33 81 -116 168 -200 209 l-67 33 -2200 5 c-2199 6 -2200 6 -2285 27 -473 118
-806 458 -914 933 -21 94 -21 107 -21 1165 0 1185 -2 1136 66 1333 148 421
530 734 971 791 35 5 1175 8 2533 7 2290 -2 2475 -3 2538 -19z m2809 -2629 l3
-2653 24 -60 c33 -83 133 -183 216 -216 l60 -24 2653 -3 2652 -2 0 -184 c0
-118 -5 -214 -15 -269 -86 -493 -457 -878 -942 -976 -100 -21 -118 -21 -2573
-21 -2455 0 -2473 0 -2573 21 -486 99 -856 482 -942 976 -13 74 -15 409 -15
2533 0 2690 -4 2521 60 2712 141 419 513 734 950 803 47 7 165 13 262 14 l178
1 2 -2652z"/>
<path d="M11630 15484 c-143 -39 -253 -160 -281 -310 -6 -34 -9 -183 -7 -388
3 -318 4 -333 27 -389 32 -81 115 -168 199 -209 l67 -33 1785 0 1785 0 67 33
c84 41 167 128 199 209 22 56 24 71 27 388 2 225 0 349 -8 390 -30 154 -139
271 -286 310 -87 22 -3490 21 -3574 -1z"/>
</g>
</svg>
